<svg width="65" height="8" viewBox="0 0 65 8" fill="none" xmlns="http://www.w3.org/2000/svg">
<g id="Frame">
<circle id="Ellipse" cx="2" cy="2" r="2" fill="#D2D6DB"/>
<circle id="Ellipse_2" cx="10" cy="2" r="2" fill="#D2D6DB"/>
<circle id="Ellipse_3" cx="18" cy="2" r="2" fill="#D2D6DB"/>
<circle id="Ellipse_4" cx="26" cy="2" r="2" fill="#D2D6DB"/>
<circle id="Ellipse_5" cx="34" cy="2" r="2" fill="#D2D6DB"/>
<circle id="Ellipse_6" cx="42" cy="2" r="2" fill="#D2D6DB"/>
<circle id="Ellipse_7" cx="50" cy="2" r="2" fill="#D2D6DB"/>
<circle id="Ellipse_8" cx="58" cy="2" r="2" fill="#D2D6DB"/>
</g>
<g id="Frame">
<circle id="Ellipse" cx="2" cy="2" r="2" fill="#D2D6DB"/>
<circle id="Ellipse_2" cx="10" cy="2" r="2" fill="#D2D6DB"/>
<circle id="Ellipse_3" cx="18" cy="2" r="2" fill="#D2D6DB"/>
<circle id="Ellipse_4" cx="26" cy="2" r="2" fill="#D2D6DB"/>
<circle id="Ellipse_5" cx="34" cy="2" r="2" fill="#D2D6DB"/>
<circle id="Ellipse_6" cx="42" cy="2" r="2" fill="#D2D6DB"/>
<circle id="Ellipse_7" cx="50" cy="2" r="2" fill="#D2D6DB"/>
<circle id="Ellipse_8" cx="58" cy="2" r="2" fill="#D2D6DB"/>
</g>
<g id="Frame">
<circle id="Ellipse" cx="2" cy="2" r="2" fill="#D2D6DB"/>
<circle id="Ellipse_2" cx="10" cy="2" r="2" fill="#D2D6DB"/>
<circle id="Ellipse_3" cx="18" cy="2" r="2" fill="#D2D6DB"/>
<circle id="Ellipse_4" cx="26" cy="2" r="2" fill="#D2D6DB"/>
<circle id="Ellipse_5" cx="34" cy="2" r="2" fill="#D2D6DB"/>
<circle id="Ellipse_6" cx="42" cy="2" r="2" fill="#D2D6DB"/>
<circle id="Ellipse_7" cx="50" cy="2" r="2" fill="#D2D6DB"/>
<circle id="Ellipse_8" cx="58" cy="2" r="2" fill="#D2D6DB"/>
</g>
<g id="Frame">
<circle id="Ellipse" cx="2" cy="2" r="2" fill="#D2D6DB"/>
<circle id="Ellipse_2" cx="10" cy="2" r="2" fill="#D2D6DB"/>
<circle id="Ellipse_3" cx="18" cy="2" r="2" fill="#D2D6DB"/>
<circle id="Ellipse_4" cx="26" cy="2" r="2" fill="#D2D6DB"/>
<circle id="Ellipse_5" cx="34" cy="2" r="2" fill="#D2D6DB"/>
<circle id="Ellipse_6" cx="42" cy="2" r="2" fill="#D2D6DB"/>
<circle id="Ellipse_7" cx="50" cy="2" r="2" fill="#D2D6DB"/>
<circle id="Ellipse_8" cx="58" cy="2" r="2" fill="#D2D6DB"/>
</g>
<g id="Frame">
<circle id="Ellipse" cx="2" cy="2" r="2" fill="#D2D6DB"/>
<circle id="Ellipse_2" cx="10" cy="2" r="2" fill="#D2D6DB"/>
<circle id="Ellipse_3" cx="18" cy="2" r="2" fill="#D2D6DB"/>
<circle id="Ellipse_4" cx="26" cy="2" r="2" fill="#D2D6DB"/>
<circle id="Ellipse_5" cx="34" cy="2" r="2" fill="#D2D6DB"/>
<circle id="Ellipse_6" cx="42" cy="2" r="2" fill="#D2D6DB"/>
<circle id="Ellipse_7" cx="50" cy="2" r="2" fill="#D2D6DB"/>
<circle id="Ellipse_8" cx="58" cy="2" r="2" fill="#D2D6DB"/>
</g>
</svg>
