<svg width="33" height="41" viewBox="0 0 33 41" fill="none" xmlns="http://www.w3.org/2000/svg">
<path id="Vector" d="M16.1536 9.85527C11.5707 9.85527 7.87414 14.4861 7.87414 20.2273C7.87414 25.9685 11.5707 30.5994 16.1536 30.5994C20.7365 30.5994 24.4331 25.9685 24.4331 20.2273C24.4331 14.4861 20.7365 9.85527 16.1536 9.85527ZM16.1536 26.9705C13.192 26.9705 10.7709 23.9465 10.7709 20.2273C10.7709 16.5082 13.1848 13.4841 16.1536 13.4841C19.1224 13.4841 21.5363 16.5082 21.5363 20.2273C21.5363 23.9465 19.1152 26.9705 16.1536 26.9705ZM26.7029 9.431C26.7029 10.776 25.8382 11.8502 24.7717 11.8502C23.6981 11.8502 22.8406 10.767 22.8406 9.431C22.8406 8.095 23.7053 7.01175 24.7717 7.01175C25.8382 7.01175 26.7029 8.095 26.7029 9.431ZM32.1865 11.8864C32.064 8.64565 31.4731 5.77505 29.578 3.40996C27.6901 1.04488 25.3986 0.304663 22.8118 0.142176C20.1456 -0.047392 12.1544 -0.047392 9.48824 0.142176C6.90856 0.295636 4.61712 1.03585 2.72199 3.40094C0.826866 5.76602 0.243196 8.63662 0.113491 11.8773C-0.0378304 15.2173 -0.0378304 25.2283 0.113491 28.5683C0.23599 31.809 0.826866 34.6796 2.72199 37.0447C4.61712 39.4098 6.90136 40.15 9.48824 40.3125C12.1544 40.5021 20.1456 40.5021 22.8118 40.3125C25.3986 40.159 27.6901 39.4188 29.578 37.0447C31.4659 34.6796 32.0568 31.809 32.1865 28.5683C32.3378 25.2283 32.3378 15.2264 32.1865 11.8864ZM28.7421 32.1521C28.1801 33.9214 27.092 35.2844 25.6725 35.9976C23.5468 37.0537 18.5027 36.81 16.1536 36.81C13.8045 36.81 8.75325 37.0447 6.63474 35.9976C5.2224 35.2935 4.13433 33.9304 3.56507 32.1521C2.72199 29.4891 2.91655 23.1702 2.91655 20.2273C2.91655 17.2845 2.7292 10.9566 3.56507 8.30262C4.12712 6.53332 5.2152 5.17024 6.63474 4.4571C8.76045 3.40094 13.8045 3.64467 16.1536 3.64467C18.5027 3.64467 23.554 3.40996 25.6725 4.4571C27.0848 5.16121 28.1729 6.52429 28.7421 8.30262C29.5852 10.9656 29.3907 17.2845 29.3907 20.2273C29.3907 23.1702 29.5852 29.4981 28.7421 32.1521Z" fill="#ABB2BF"/>
</svg>
