<svg width="36" height="36" viewBox="0 0 36 36" fill="none" xmlns="http://www.w3.org/2000/svg">
<g id="&#240;&#159;&#166;&#134; icon &#34;Twitter&#34;">
<path id="Vector" d="M31.6715 8.95099C31.6939 9.34381 31.6939 9.73671 31.6939 10.1295C31.6939 22.1109 24.4145 35.9163 11.1097 35.9163C7.01073 35.9163 3.203 34.4291 0 31.8477C0.582383 31.9319 1.14229 31.9599 1.74708 31.9599C5.12921 31.9599 8.24265 30.5289 10.7289 28.0877C7.5483 28.0035 4.88286 25.394 3.96451 21.8023C4.41252 21.8865 4.86046 21.9426 5.33087 21.9426C5.98041 21.9426 6.63001 21.8303 7.23474 21.634C3.91976 20.7921 1.43345 17.1444 1.43345 12.7391V12.6269C2.39655 13.3003 3.51657 13.7212 4.70361 13.7772C2.75493 12.1497 1.47826 9.37188 1.47826 6.22918C1.47826 4.54563 1.83657 3.00235 2.46377 1.65548C6.02515 7.15516 11.3784 10.7467 17.3812 11.1396C17.2692 10.4662 17.202 9.76478 17.202 9.06328C17.202 4.0686 20.4274 0 24.4367 0C26.5198 0 28.4012 1.09432 29.7228 2.86208C31.3578 2.46927 32.9257 1.71162 34.3145 0.673436C33.7769 2.77796 32.6346 4.54572 31.1339 5.66802C32.5898 5.4717 34.0009 4.96652 35.3 4.2651C34.3146 6.06084 33.0826 7.66018 31.6715 8.95099Z" fill="#ABB2BF"/>
</g>
</svg>
