<svg width="33" height="31" viewBox="0 0 33 31" fill="none" xmlns="http://www.w3.org/2000/svg">
<g id="&#240;&#159;&#166;&#134; icon &#34;Envelope&#34;">
<path id="Vector" d="M31.6881 10.0211C31.9341 9.7761 32.3 10.0053 32.3 10.3925V26.5543C32.3 28.6486 30.9437 30.3478 29.2719 30.3478H3.02812C1.35635 30.3478 0 28.6486 0 26.5543V10.4004C0 10.0053 0.35959 9.784 0.611934 10.029C2.02506 11.4041 3.89871 13.1507 10.3335 19.0069C11.6646 20.224 13.9104 22.7845 16.15 22.7687C18.4022 22.7925 20.6922 20.1765 21.9728 19.0069C28.4076 13.1507 30.2749 11.3962 31.6881 10.0211ZM16.15 20.2319C17.6136 20.2635 19.7207 17.9242 20.7805 16.96C29.152 9.34933 29.7892 8.68547 31.7196 6.78874C32.0855 6.4331 32.3 5.87988 32.3 5.29506V3.79347C32.3 1.69916 30.9437 0 29.2719 0H3.02812C1.35635 0 0 1.69916 0 3.79347V5.29506C0 5.87988 0.214492 6.42519 0.580391 6.78874C2.51082 8.67757 3.14799 9.34933 11.5195 16.96C12.5793 17.9242 14.6864 20.2635 16.15 20.2319Z" fill="#ABB2BF"/>
</g>
</svg>
