<svg width="37" height="37" viewBox="0 0 37 37" fill="none" xmlns="http://www.w3.org/2000/svg">
<g id="&#240;&#159;&#166;&#134; icon &#34;LinkedIn&#34;">
<path id="Vector" d="M33.7071 0H2.58475C1.15868 0 0 1.17489 0 2.61717V33.6828C0 35.1251 1.15868 36.3 2.58475 36.3H33.7071C35.1332 36.3 36.3 35.1251 36.3 33.6828V2.61717C36.3 1.17489 35.1332 0 33.7071 0ZM10.971 31.1143H5.59085V13.7908H10.9791V31.1143H10.971ZM8.28094 11.4248C6.55507 11.4248 5.16141 10.023 5.16141 8.30525C5.16141 6.58748 6.55507 5.18571 8.28094 5.18571C9.99871 5.18571 11.4005 6.58748 11.4005 8.30525C11.4005 10.0311 10.0068 11.4248 8.28094 11.4248ZM31.1386 31.1143H25.7584V22.6875C25.7584 20.678 25.7179 18.0933 22.963 18.0933C20.1595 18.0933 19.73 20.281 19.73 22.5417V31.1143H14.3498V13.7908H19.5113V16.1567H19.5842C20.3053 14.7955 22.0636 13.3613 24.6808 13.3613C30.1258 13.3613 31.1386 16.9508 31.1386 21.6179V31.1143Z" fill="#ABB2BF"/>
</g>
</svg>
